<svg width="512" height="512" xmlns="http://www.w3.org/2000/svg">

 <g>
  <title>background</title>
  <rect fill="none" id="canvas_background" height="514" width="514" y="-1" x="-1"/>
 </g>
 <g>
  <title>Layer 1</title>
  <path id="svg_2" fill="#1dd15d" d="m234,8.42438c-45.076,5.92132 -86.392,18.89402 -124,45.29632c-25.5656,17.948 -47.6002,41.1514 -64.6559,67.2793c-15.7389,24.111 -26.8293,51.025 -33.4598,79c-5.76107,24.307 -8.08761,51.064 -5.71455,76c3.36606,35.371 13.34025,69.896 30.69215,101c49.2382,88.261 150.3371,137.811 250.1381,125.715c36.496,-4.424 73.113,-16.997 104,-37.06c34.451,-22.378 63.142,-51.938 83.573,-87.655c60.373,-105.545 31.387,-244.38 -64.573,-318.3488c-24.999,-19.2699 -53.676,-33.6542 -84,-42.3603c-22.701,-6.5174 -45.452,-9.2909 -69,-9.2909c-7.6,0 -15.455,-0.56674 -23,0.42438z"/>
  <path id="svg_3" fill="#fcfefd" d="m244,394c0.187,-9.062 1.97,-17.996 2.83,-27c3.027,-31.678 6.222,-63.309 9.34,-95c1.95,-19.826 6.283,-39.222 1.355,-59c-10.382,-41.666 -50.791,-73.116 -94.525,-69.91c-17.198,1.261 -33.249,8.476 -47,18.55c-8.257,6.05 -16.0051,13.723 -21.4969,22.435c-5.1857,8.226 -8.7662,17.642 -11.6181,26.925c-8.721,28.386 1.7279,61.341 21.289,82.996c8.733,9.668 20.321,16.227 30.826,23.713c16.955,12.083 33.788,24.342 51,36.037c13.182,8.957 25.957,18.53 39.004,27.689c6.122,4.298 12.081,9.656 18.996,12.565m31,-187c9.228,-1.901 17.387,-4.985 27,-5c9.955,-0.016 21.528,0.934 30,6.803c15.457,10.709 12.887,30.889 -0.09,42.606c-6.728,6.075 -15.288,10.817 -23.91,13.629c-4.233,1.38 -13.184,2.908 -15.987,6.526c-1.994,2.574 -1.879,7.339 -2.437,10.436c-1.44,7.983 -3.509,15.849 -3.576,24c4.461,0.037 14.674,3.778 18.258,0.968c1.706,-1.336 1.786,-4.026 2.19,-5.969c1.085,-5.213 1.079,-13.708 5.699,-17.104c4.266,-3.135 10.062,-4.436 14.853,-6.569c10.745,-4.785 20.994,-10.121 28.674,-19.326c15.597,-18.693 15.016,-47.031 -4.674,-62.481c-10.405,-8.165 -24.201,-11.106 -37,-12.94c-8.242,-1.18 -17.722,-1.274 -26,-0.294c-2.443,0.29 -6.39,0.186 -8.411,1.742c-1.969,1.515 -2.121,4.729 -2.508,6.973c-0.925,5.364 -2.036,10.538 -2.081,16z"/>
  <path id="svg_4" fill="#1dd15d" d="m162,200.529c-3.868,0.888 -7.691,2.866 -10.999,5.019c-29.636,19.279 -8.434,67.956 25.999,59.768c4.17,-0.991 8.376,-3.268 11.999,-5.526c4.341,-2.704 6.891,-6.396 9.305,-10.79c13.522,-24.617 -8.026,-54.96 -36.304,-48.471z"/>
  <path id="svg_5" fill="#fcfefd" d="m387,233c-2.122,6.279 -6.492,11.329 -8,18c13.936,0 27.336,2.138 38.816,10.696c12.272,9.149 12.242,25.288 0.169,34.772c-7.61,5.977 -18.572,7.797 -27.985,8.442c-4.413,0.303 -12.587,-1.641 -16.034,1.693c-4.118,3.985 -7.278,12.213 -9.702,17.397c-0.923,1.974 -2.242,4.443 -1.131,6.61c1.983,3.869 9.925,6.488 13.867,7.39c2.109,-5.064 5.294,-14.075 10.213,-16.972c4.325,-2.548 12.799,-1.636 17.787,-2.195c10.21,-1.143 21.097,-4.411 28.985,-11.159c4.085,-3.494 6.906,-7.849 9.175,-12.674c1.656,-3.522 3.229,-7.096 3.666,-11c3.54,-31.623 -33.868,-47.504 -59.826,-51m-107,93c-1.569,7.606 -3.387,15.24 -4,23c5.444,0.445 10.596,2.268 16,2.998c1.874,0.254 4.687,1.05 6.397,-0.115c2.247,-1.533 1.969,-6.475 2.487,-8.883c0.689,-3.202 2.695,-8.484 1.423,-11.683c-0.95,-2.39 -4.154,-2.506 -6.308,-2.927c-5.332,-1.043 -10.549,-2.278 -15.999,-2.39m81,45c1.929,-3.666 4.017,-7.264 5.813,-10.999c3.383,-7.035 -6.655,-14.252 -13.628,-13.47c-4.383,0.492 -9.734,11.282 -8.477,15.259c0.921,2.913 4.828,4.573 7.292,5.901c2.939,1.583 5.726,2.725 9,3.309z"/>
 </g>
</svg>